# xmcd CD database file
# Copyright (C) 1997 Ti Kan
# 
# Track frame offsets:
#     150
#     19805
#     35817
#     52262
#     67952
#     78625
#     91335
#     101872
#     113277
#     130430
#     148745
#     167457
#     186217
#     213482
#     227080
#     238622
#     247980
#     258897
#     274627
#     295257
#     320795
# 
# Disc length: 4554 seconds
# 
# Revision: 1
# Processed by: cddbd v1.4b41PL1 Copyright (c) Steve Scherf et al.
# Submitted via: DiscPlay 4.0.3
# 
DISCID=3611c815
DTITLE=Jerry Lee Lewis - The Complete Palomino Club Recordings CD #2
DYEAR=1900
DGENRE=
TTITLE0=39 And Holding
TTITLE1=She Even Woke Me Up
TTITLE2=I Wish I Was Eighteen
TTITLE3=Lucille
TTITLE4=Brown Eyed Handsome Man
TTITLE5=Hey Good Lookin'
TTITLE6=Roll Over Beethoven
TTITLE7=Chantilly Lace
TTITLE8=Little Queenie
TTITLE9=Johnny B. Goode
TTITLE10=No Headstone On My Grave
TTITLE11=Georgia On My Mind
TTITLE12=Mexicali Rose
TTITLE13=Will The Circle Be Unbroken
TTITLE14=I'll Find It Where I Can
TTITLE15=High School Confidential
TTITLE16=Boogie Woogie Countryman
TTITLE17=Middle Aged Crazy
TTITLE18=You Are My Sunshine
TTITLE19=Picture From Life's Other Side
TTITLE20=Over The Rainbow
EXTD=
EXTT0=
EXTT1=
EXTT2=
EXTT3=
EXTT4=
EXTT5=
EXTT6=
EXTT7=
EXTT8=
EXTT9=
EXTT10=
EXTT11=
EXTT12=
EXTT13=
EXTT14=
EXTT15=
EXTT16=
EXTT17=
EXTT18=
EXTT19=
EXTT20=
PLAYORDER=
